<svg width="303" height="240" viewBox="0 0 303 240" fill="none" xmlns="http://www.w3.org/2000/svg">
<rect width="303" height="240" rx="25" fill="#010101"/>
<path d="M267.914 185.406L133.757 157.531L187.639 59.0002L267.914 185.406Z" fill="#00E5FF"/>
<ellipse cx="83.0806" cy="68.9696" rx="83.0806" ry="68.9696" transform="matrix(0.999966 0.00824679 -0.00922034 0.999958 62.136 47.3047)" fill="#00E5FF"/>
<path d="M137.864 132.364V131.955C137.909 127.614 138.364 124.159 139.227 121.591C140.091 119.023 141.318 116.943 142.909 115.352C144.5 113.761 146.409 112.295 148.636 110.955C149.977 110.136 151.182 109.17 152.25 108.057C153.318 106.92 154.159 105.614 154.773 104.136C155.409 102.659 155.727 101.023 155.727 99.2273C155.727 97 155.205 95.0682 154.159 93.4318C153.114 91.7955 151.716 90.5341 149.966 89.6477C148.216 88.7614 146.273 88.3182 144.136 88.3182C142.273 88.3182 140.477 88.7045 138.75 89.4773C137.023 90.25 135.58 91.4659 134.42 93.125C133.261 94.7841 132.591 96.9545 132.409 99.6364H123.818C124 95.7727 125 92.4659 126.818 89.7159C128.659 86.9659 131.08 84.8636 134.08 83.4091C137.102 81.9545 140.455 81.2273 144.136 81.2273C148.136 81.2273 151.614 82.0227 154.568 83.6136C157.545 85.2045 159.841 87.3864 161.455 90.1591C163.091 92.9318 163.909 96.0909 163.909 99.6364C163.909 102.136 163.523 104.398 162.75 106.42C162 108.443 160.909 110.25 159.477 111.841C158.068 113.432 156.364 114.841 154.364 116.068C152.364 117.318 150.761 118.636 149.557 120.023C148.352 121.386 147.477 123.011 146.932 124.898C146.386 126.784 146.091 129.136 146.045 131.955V132.364H137.864ZM142.227 152.545C140.545 152.545 139.102 151.943 137.898 150.739C136.693 149.534 136.091 148.091 136.091 146.409C136.091 144.727 136.693 143.284 137.898 142.08C139.102 140.875 140.545 140.273 142.227 140.273C143.909 140.273 145.352 140.875 146.557 142.08C147.761 143.284 148.364 144.727 148.364 146.409C148.364 147.523 148.08 148.545 147.511 149.477C146.966 150.409 146.227 151.159 145.295 151.727C144.386 152.273 143.364 152.545 142.227 152.545Z" fill="white"/>
</svg>
